<?xml version="1.0" standalone="no"?>
<!DOCTYPE svg PUBLIC "-//W3C//DTD SVG 20010904//EN"
 "http://www.w3.org/TR/2001/REC-SVG-20010904/DTD/svg10.dtd">
<svg version="1.0" xmlns="http://www.w3.org/2000/svg"
 width="765.000000pt" height="765.000000pt" viewBox="0 0 765.000000 765.000000"
 preserveAspectRatio="xMidYMid meet">
<metadata>
Created by potrace 1.14, written by Peter Selinger 2001-2017
</metadata>
<g transform="translate(0.000000,765.000000) scale(0.100000,-0.100000)"
fill="#000000" stroke="none">
<path d="M3044 6472 c-45 -92 -108 -219 -139 -282 -32 -63 -69 -137 -82 -165
-13 -27 -32 -66 -41 -85 -9 -19 -20 -36 -24 -38 -5 -2 -8 -8 -8 -14 0 -10 -96
-206 -469 -960 -110 -224 -201 -411 -201 -417 0 -6 -5 -11 -10 -11 -6 0 -9 -3
-8 -7 1 -5 -92 -197 -206 -428 -115 -231 -288 -582 -386 -780 -98 -198 -278
-562 -400 -810 -122 -247 -312 -632 -422 -855 -110 -223 -215 -435 -234 -473
l-35 -67 205 2 c113 2 206 5 206 8 0 3 62 5 138 6 75 1 250 4 387 8 138 5 318
10 400 11 83 2 231 6 330 9 99 3 261 8 360 11 99 3 259 7 355 10 96 3 267 7
380 10 113 3 273 8 355 11 83 2 236 6 340 9 105 3 258 7 342 9 84 2 156 7 162
10 5 4 12 2 16 -4 4 -6 11 -8 16 -5 5 4 80 8 167 10 199 5 532 14 727 20 83 3
233 7 335 10 102 2 266 7 365 10 99 3 265 7 369 10 103 3 192 8 196 10 5 3 11
1 15 -5 4 -6 11 -7 18 -3 6 4 61 8 122 9 60 1 225 6 365 10 140 4 274 7 298 7
24 1 42 6 42 12 0 10 -6 48 -26 155 -3 19 -8 44 -9 55 -2 11 -8 45 -14 75 -6
30 -12 66 -15 80 -2 14 -7 36 -10 50 -3 14 -8 42 -11 63 -3 21 -12 71 -19 110
-8 40 -17 86 -19 102 -5 28 -21 119 -32 175 -3 14 -10 52 -16 85 -5 33 -12 71
-15 85 -2 14 -11 63 -20 110 -8 47 -17 96 -19 110 -3 14 -14 75 -26 135 -11
61 -22 124 -24 140 -2 17 -7 41 -10 55 -3 14 -8 39 -11 55 -2 17 -9 50 -14 75
-5 25 -12 59 -14 75 -3 17 -7 41 -10 55 -3 14 -7 41 -10 61 -3 20 -7 42 -10
50 -3 8 -7 33 -10 56 -3 22 -8 52 -10 65 -3 12 -8 34 -10 48 -2 14 -7 36 -10
50 -3 14 -8 41 -10 60 -3 19 -10 58 -16 85 -6 28 -13 66 -15 85 -5 30 -27 156
-41 225 -2 11 -8 45 -14 75 -5 30 -12 69 -15 85 -4 17 -8 41 -10 55 -2 14 -13
75 -24 135 -11 61 -23 126 -26 145 -3 19 -8 42 -10 50 -2 8 -6 31 -9 50 -3 19
-8 46 -11 60 -3 14 -12 63 -20 110 -9 47 -17 97 -20 110 -13 68 -28 148 -32
175 -5 35 -8 54 -28 155 -8 41 -17 91 -20 110 -3 20 -8 47 -11 60 -3 14 -7 39
-10 55 -2 17 -7 41 -10 55 -3 14 -8 39 -11 55 -2 17 -11 66 -19 110 -9 44 -17
94 -19 110 -2 17 -6 41 -9 55 -3 14 -8 36 -11 50 -2 14 -7 39 -11 55 -3 17 -7
44 -10 60 -2 17 -9 55 -15 85 -6 30 -12 64 -14 75 -2 11 -6 34 -9 50 -11 55
-13 70 -19 105 -14 80 -17 96 -22 120 -3 14 -8 41 -11 60 -4 19 -10 42 -15 50
-6 12 -9 12 -14 -5 -4 -11 -38 -99 -77 -195 -38 -96 -101 -254 -140 -350 -38
-96 -73 -184 -78 -195 -27 -61 -52 -124 -100 -245 -29 -74 -57 -139 -62 -145
-4 -5 -8 -14 -8 -21 0 -6 -10 -33 -22 -60 -12 -27 -23 -53 -24 -59 -3 -11
-119 -298 -134 -330 -5 -11 -19 -45 -30 -75 -12 -30 -26 -64 -31 -75 -4 -11
-29 -71 -54 -133 -50 -125 -91 -226 -105 -257 -4 -11 -31 -78 -60 -150 -28
-71 -55 -139 -60 -150 -5 -11 -19 -45 -30 -75 -12 -30 -26 -64 -31 -75 -4 -11
-24 -60 -44 -108 -20 -48 -41 -100 -47 -115 -6 -15 -12 -29 -12 -32 -1 -5 -49
-123 -67 -165 -5 -11 -33 -81 -63 -155 -30 -74 -73 -180 -95 -235 -23 -54 -41
-105 -41 -112 0 -7 -4 -13 -10 -13 -5 0 -9 -3 -8 -7 1 -5 -3 -19 -9 -33 -6
-14 -19 -50 -31 -80 -11 -30 -27 -68 -36 -85 -9 -16 -16 -33 -16 -37 0 -7
-172 -436 -190 -473 -5 -11 -18 -42 -28 -70 -17 -44 -64 -159 -189 -465 -19
-47 -40 -96 -46 -110 -5 -14 -12 -34 -14 -44 -2 -11 -7 -24 -12 -30 -5 -6 -19
-36 -31 -66 -30 -78 -64 -150 -71 -150 -3 0 -6 6 -7 13 0 6 -10 53 -21 102
-12 50 -23 99 -25 110 -6 29 -32 144 -61 270 -15 61 -28 119 -29 130 -2 11 -9
43 -16 70 -6 28 -14 59 -16 70 -2 11 -6 31 -9 45 -9 39 -14 63 -19 85 -2 11
-16 72 -31 135 -15 63 -28 125 -28 138 -1 12 -4 22 -8 22 -4 0 -6 8 -5 17 2
10 -3 34 -10 55 -7 20 -10 39 -7 41 3 3 1 12 -3 19 -8 13 -10 20 -19 68 -4 26
-5 31 -25 115 -7 28 -14 64 -17 80 -6 37 -9 46 -15 65 -4 12 -48 207 -64 285
-3 18 -28 132 -39 180 -3 11 -7 29 -9 40 -2 11 -14 63 -26 115 -12 52 -23 106
-25 120 -2 14 -4 25 -5 25 -2 0 -9 26 -15 65 -3 19 -8 41 -10 48 -3 7 -16 65
-30 130 -14 64 -28 128 -31 142 -3 14 -5 25 -5 25 0 0 -4 18 -10 40 -5 22 -12
51 -15 65 -3 14 -7 32 -9 40 -3 8 -18 80 -35 160 -17 80 -33 152 -35 160 -25
107 -37 164 -39 174 -12 58 -29 137 -36 161 -5 17 -11 44 -14 60 -3 17 -10 48
-15 70 -4 22 -18 85 -30 140 -12 55 -24 107 -26 115 -44 196 -72 323 -81 365
-2 11 -6 30 -8 43 -3 13 -8 33 -12 44 -3 11 -7 30 -9 41 -4 27 -37 176 -60
272 -9 39 -18 79 -20 90 -2 11 -11 52 -20 90 -9 39 -18 79 -20 90 -2 11 -6 31
-9 45 -18 79 -37 168 -42 190 -7 37 -24 100 -27 100 -1 -1 -39 -76 -83 -168z"/>
</g>
</svg>
